<?xml version="1.0" encoding="utf-8" ?>
<svg baseProfile="full" height="273.493521226" version="1.1" width="275.0" xmlns="http://www.w3.org/2000/svg" xmlns:ev="http://www.w3.org/2001/xml-events" xmlns:xlink="http://www.w3.org/1999/xlink"><defs /><circle cx="187.5" cy="136.746760613" r="5" /><circle cx="175.802222156" cy="168.886141097" r="6" /><circle cx="146.182408883" cy="185.987148264" r="7" /><circle cx="112.5" cy="180.048030802" r="5" /><circle cx="90.5153689607" cy="153.847767779" r="6" /><circle cx="90.5153689607" cy="119.645753447" r="7" /><circle cx="112.5" cy="93.4454904239" r="5" /><circle cx="146.182408883" cy="87.5063729625" r="6" /><circle cx="175.802222156" cy="104.607380129" r="7" /><circle cx="212.5" cy="136.746760613" r="4" /><circle cx="206.015909323" cy="167.252008844" r="5" /><circle cx="187.684795477" cy="192.482622524" r="6" /><circle cx="160.676274578" cy="208.075999335" r="7" /><circle cx="129.660365255" cy="211.335902766" r="8" /><circle cx="100.0" cy="201.698665897" r="4" /><circle cx="76.8237254219" cy="180.830654535" r="5" /><circle cx="64.138929945" cy="152.340137424" r="6" /><circle cx="64.138929945" cy="121.153383802" r="7" /><circle cx="76.8237254219" cy="92.6628666912" r="8" /><circle cx="100.0" cy="71.7948553293" r="4" /><circle cx="129.660365255" cy="62.1576184605" r="5" /><circle cx="160.676274578" cy="65.417521891" r="6" /><circle cx="187.684795477" cy="81.0108987023" r="7" /><circle cx="206.015909323" cy="106.241512382" r="8" /><circle cx="237.5" cy="136.746760613" r="2" /><circle cx="234.092582629" cy="162.628665123" r="3" /><circle cx="224.102540378" cy="186.746760613" r="4" /><circle cx="208.210678119" cy="207.457438732" r="5" /><circle cx="187.5" cy="223.349300992" r="6" /><circle cx="163.38190451" cy="233.339343242" r="7" /><circle cx="137.5" cy="236.746760613" r="8" /><circle cx="111.61809549" cy="233.339343242" r="9" /><circle cx="87.5" cy="223.349300992" r="2" /><circle cx="66.7893218813" cy="207.457438732" r="3" /><circle cx="50.8974596216" cy="186.746760613" r="4" /><circle cx="40.9074173711" cy="162.628665123" r="5" /><circle cx="37.5" cy="136.746760613" r="6" /><circle cx="40.9074173711" cy="110.864856103" r="7" /><circle cx="50.8974596216" cy="86.7467606131" r="8" /><circle cx="66.7893218813" cy="66.0360824945" r="9" /><circle cx="87.5" cy="50.1442202347" r="2" /><circle cx="111.61809549" cy="40.1541779842" r="3" /><circle cx="137.5" cy="36.7467606131" r="4" /><circle cx="163.38190451" cy="40.1541779842" r="5" /><circle cx="187.5" cy="50.1442202347" r="6" /><circle cx="208.210678119" cy="66.0360824945" r="7" /><circle cx="224.102540378" cy="86.7467606131" r="8" /><circle cx="234.092582629" cy="110.864856103" r="9" /><circle cx="262.5" cy="136.746760613" r="2" /><circle cx="259.768450092" cy="162.735721965" r="3" /><circle cx="251.693182205" cy="187.588840998" r="4" /><circle cx="238.627124297" cy="210.21991715" r="5" /><circle cx="221.141325795" cy="229.639863798" r="6" /><circle cx="200.0" cy="244.999936086" r="7" /><circle cx="176.127124297" cy="255.62882515" r="8" /><circle cx="150.566057908" cy="261.061997534" r="9" /><circle cx="124.433942092" cy="261.061997534" r="10" /><circle cx="98.8728757031" cy="255.62882515" r="11" /><circle cx="75.0" cy="244.999936086" r="2" /><circle cx="53.8586742051" cy="229.639863798" r="3" /><circle cx="36.3728757031" cy="210.21991715" r="4" /><circle cx="23.3068177947" cy="187.588840998" r="5" /><circle cx="15.2315499083" cy="162.735721965" r="6" /><circle cx="12.5" cy="136.746760613" r="7" /><circle cx="15.2315499083" cy="110.757799261" r="8" /><circle cx="23.3068177947" cy="85.9046802287" r="9" /><circle cx="36.3728757031" cy="63.2736040766" r="10" /><circle cx="53.8586742051" cy="43.8536574285" r="11" /><circle cx="75.0" cy="28.4935851401" r="2" /><circle cx="98.8728757031" cy="17.8646960762" r="3" /><circle cx="124.433942092" cy="12.4315236921" r="4" /><circle cx="150.566057908" cy="12.4315236921" r="5" /><circle cx="176.127124297" cy="17.8646960762" r="6" /><circle cx="200.0" cy="28.4935851401" r="7" /><circle cx="221.141325795" cy="43.8536574285" r="8" /><circle cx="238.627124297" cy="63.2736040766" r="9" /><circle cx="251.693182205" cy="85.9046802287" r="10" /><circle cx="259.768450092" cy="110.757799261" r="11" /></svg>