<?xml version="1.0" encoding="utf-8" ?>
<svg baseProfile="full" height="295.373002924" version="1.1" width="297.0" xmlns="http://www.w3.org/2000/svg" xmlns:ev="http://www.w3.org/2001/xml-events" xmlns:xlink="http://www.w3.org/1999/xlink"><defs /><circle cx="202.5" cy="147.686501462" r="5" /><circle cx="189.866399928" cy="182.397032385" r="6" /><circle cx="157.877001594" cy="200.866120125" r="7" /><circle cx="121.5" cy="194.451873267" r="5" /><circle cx="97.7565984776" cy="166.155589202" r="6" /><circle cx="97.7565984776" cy="129.217413723" r="7" /><circle cx="121.5" cy="100.921129658" r="5" /><circle cx="157.877001594" cy="94.5068827995" r="6" /><circle cx="189.866399928" cy="112.975970539" r="7" /><circle cx="229.5" cy="147.686501462" r="4" /><circle cx="222.497182069" cy="180.632169551" r="5" /><circle cx="202.699579115" cy="207.881232326" r="6" /><circle cx="173.530376544" cy="224.722079282" r="7" /><circle cx="140.033194475" cy="228.242774987" r="8" /><circle cx="108.0" cy="217.834559169" r="4" /><circle cx="82.9696234556" cy="195.297106898" r="5" /><circle cx="69.2700443406" cy="164.527348418" r="6" /><circle cx="69.2700443406" cy="130.845654506" r="7" /><circle cx="82.9696234556" cy="100.075896026" r="8" /><circle cx="108.0" cy="77.5384437556" r="4" /><circle cx="140.033194475" cy="67.1302279374" r="5" /><circle cx="173.530376544" cy="70.6509236423" r="6" /><circle cx="202.699579115" cy="87.4917705985" r="7" /><circle cx="222.497182069" cy="114.740833373" r="8" /><circle cx="256.5" cy="147.686501462" r="2" /><circle cx="252.819989239" cy="175.638958333" r="3" /><circle cx="242.030743609" cy="201.686501462" r="4" /><circle cx="224.867532368" cy="224.05403383" r="5" /><circle cx="202.5" cy="241.217245071" r="6" /><circle cx="176.452456871" cy="252.006490701" r="7" /><circle cx="148.5" cy="255.686501462" r="8" /><circle cx="120.547543129" cy="252.006490701" r="9" /><circle cx="94.5" cy="241.217245071" r="2" /><circle cx="72.1324676319" cy="224.05403383" r="3" /><circle cx="54.9692563913" cy="201.686501462" r="4" /><circle cx="44.1800107608" cy="175.638958333" r="5" /><circle cx="40.5" cy="147.686501462" r="6" /><circle cx="44.1800107608" cy="119.734044591" r="7" /><circle cx="54.9692563913" cy="93.6865014622" r="8" /><circle cx="72.1324676319" cy="71.318969094" r="9" /><circle cx="94.5" cy="54.1557578535" r="2" /><circle cx="120.547543129" cy="43.366512223" r="3" /><circle cx="148.5" cy="39.6865014622" r="4" /><circle cx="176.452456871" cy="43.366512223" r="5" /><circle cx="202.5" cy="54.1557578535" r="6" /><circle cx="224.867532368" cy="71.318969094" r="7" /><circle cx="242.030743609" cy="93.6865014622" r="8" /><circle cx="252.819989239" cy="119.734044591" r="9" /><circle cx="283.5" cy="147.686501462" r="2" /><circle cx="280.549926099" cy="175.754579723" r="3" /><circle cx="271.828636782" cy="202.595948277" r="4" /><circle cx="257.717294241" cy="227.037510522" r="5" /><circle cx="238.832631858" cy="248.011052902" r="6" /><circle cx="216.0" cy="264.599930973" r="7" /><circle cx="190.217294241" cy="276.079131162" r="8" /><circle cx="162.611342541" cy="281.946957337" r="9" /><circle cx="134.388657459" cy="281.946957337" r="10" /><circle cx="106.782705759" cy="276.079131162" r="11" /><circle cx="81.0" cy="264.599930973" r="2" /><circle cx="58.1673681416" cy="248.011052902" r="3" /><circle cx="39.2827057594" cy="227.037510522" r="4" /><circle cx="25.1713632182" cy="202.595948277" r="5" /><circle cx="16.4500739009" cy="175.754579723" r="6" /><circle cx="13.5" cy="147.686501462" r="7" /><circle cx="16.4500739009" cy="119.618423202" r="8" /><circle cx="25.1713632182" cy="92.777054647" r="9" /><circle cx="39.2827057594" cy="68.3354924027" r="10" /><circle cx="58.1673681416" cy="47.3619500227" r="11" /><circle cx="81.0" cy="30.7730719513" r="2" /><circle cx="106.782705759" cy="19.2938717623" r="3" /><circle cx="134.388657459" cy="13.4260455875" r="4" /><circle cx="162.611342541" cy="13.4260455875" r="5" /><circle cx="190.217294241" cy="19.2938717623" r="6" /><circle cx="216.0" cy="30.7730719513" r="7" /><circle cx="238.832631858" cy="47.3619500227" r="8" /><circle cx="257.717294241" cy="68.3354924027" r="9" /><circle cx="271.828636782" cy="92.777054647" r="10" /><circle cx="280.549926099" cy="119.618423202" r="11" /></svg>